<svg id="Layer_3" height="512" viewBox="0 0 64 64" width="512" xmlns="http://www.w3.org/2000/svg" data-name="Layer 3"><path d="m59 1h-40a4 4 0 0 0 -4 4v16h-7a5.006 5.006 0 0 0 -5 5v27h-1a1 1 0 0 0 -1 1v4a5.006 5.006 0 0 0 5 5h46a5.006 5.006 0 0 0 5-5v-4a1 1 0 0 0 -1-1h-1v-12h4a4 4 0 0 0 4-4v-32a4 4 0 0 0 -4-4zm-40 2h40a2 2 0 0 1 2 2v4h-44v-4a2 2 0 0 1 2-2zm0 38h30v8h-40v-22h6v10a4 4 0 0 0 4 4zm36 17a3 3 0 0 1 -3 3h-46a3 3 0 0 1 -3-3v-3h16.586l3.707 3.707a1 1 0 0 0 .707.293h10a1 1 0 0 0 .707-.293l3.707-3.707h16.586zm-32.586-3h13.172l-2 2h-9.172zm30.586-2h-48v-27a3 3 0 0 1 3-3h7v2h-7a1 1 0 0 0 -1 1v24a1 1 0 0 0 1 1h42a1 1 0 0 0 1-1v-9h2zm6-14h-40a2 2 0 0 1 -2-2v-26h44v26a2 2 0 0 1 -2 2z"/><path d="m57 5h2v2h-2z"/><path d="m53 5h2v2h-2z"/><path d="m19 5h2v2h-2z"/><path d="m36 15h-16a1 1 0 0 0 -1 1v18a1 1 0 0 0 1 1h16a1 1 0 0 0 1-1v-18a1 1 0 0 0 -1-1zm-10 8a2 2 0 1 1 2 2 2 2 0 0 1 -2-2zm2 4a4 4 0 0 1 4 4v2h-8v-2a4 4 0 0 1 4-4zm7 6h-1v-2a6 6 0 0 0 -3.107-5.253 4 4 0 1 0 -5.786 0 6 6 0 0 0 -3.107 5.253v2h-1v-16h14z"/><path d="m58 17h-18a1 1 0 0 0 -1 1v6a1 1 0 0 0 1 1h18a1 1 0 0 0 1-1v-6a1 1 0 0 0 -1-1zm-1 6h-16v-4h16z"/><path d="m58 27h-18a1 1 0 0 0 -1 1v6a1 1 0 0 0 1 1h18a1 1 0 0 0 1-1v-6a1 1 0 0 0 -1-1zm-1 6h-16v-4h16z"/><path d="m44 20h2v2h-2z"/><path d="m48 20h2v2h-2z"/><path d="m52 20h2v2h-2z"/><path d="m44 30h2v2h-2z"/><path d="m48 30h2v2h-2z"/><path d="m52 30h2v2h-2z"/></svg>