<svg id="Capa_1" enable-background="new 0 0 512.049 512.049" height="512" viewBox="0 0 512.049 512.049" width="512" xmlns="http://www.w3.org/2000/svg"><g id="XMLID_1757_"><g id="XMLID_2104_"><g id="XMLID_391_"><path id="XMLID_1295_" d="m477.064 205.715c-6.172-23.661-27.412-40.325-52.377-40.325-10.333 0-20.43 3.01-29.052 8.479-4.515-7.675-9.677-14.989-15.436-21.869h3.577c16.542 0 30-13.458 30-30s-13.458-30-30-30h-12.583v-53c0-21.505-17.495-39-39-39h-152.336c-21.505 0-39 17.495-39 39v53h-12.583c-16.542 0-30 13.458-30 30s13.458 30 30 30h3.576c-5.753 6.873-10.911 14.179-15.423 21.846-8.608-5.497-18.607-8.456-29.066-8.456-24.965 0-46.205 16.664-52.377 40.325-21.172 11.447-34.588 33.674-34.588 58s13.416 46.552 34.588 57.999c6.171 23.661 27.412 40.325 52.377 40.325 13.37 0 25.984-4.89 35.742-13.481 3.826 5.5 7.993 10.784 12.503 15.801-1.863.862-3.698 1.822-5.493 2.892-17.746 10.574-28.341 29.221-28.341 49.878v36.785c0 20.657 10.595 39.304 28.341 49.878 9.228 5.498 19.452 8.257 29.698 8.257 9.459 0 18.934-2.352 27.656-7.071l56.026-30.321c3.952 1.268 8.16 1.959 12.528 1.959s8.577-.691 12.529-1.96l56.026 30.321c8.723 4.72 18.196 7.071 27.656 7.071 10.244 0 20.472-2.76 29.698-8.257 17.746-10.574 28.341-29.221 28.341-49.878v-36.785c0-20.657-10.595-39.304-28.341-49.878-1.795-1.069-3.629-2.03-5.492-2.892 4.51-5.018 8.678-10.301 12.504-15.802 9.766 8.59 22.397 13.482 35.741 13.482 24.965 0 46.206-16.664 52.377-40.325 21.172-11.447 34.588-33.673 34.588-57.999.003-24.325-13.413-46.552-34.584-57.999zm-358.79-83.715c0-5.514 4.486-10 10-10h82.75c5.523 0 10-4.478 10-10s-4.477-10-10-10h-50.167v-53c0-10.476 8.523-19 19-19h152.334c10.477 0 19 8.524 19 19v53h-50.167c-5.523 0-10 4.478-10 10s4.477 10 10 10h82.75c5.514 0 10 4.486 10 10s-4.486 10-10 10h-255.5c-5.513 0-10-4.486-10-10zm-30.912 220.039c-16.888 0-31.072-12.082-33.727-28.728-.534-3.35-2.731-6.202-5.835-7.572-16.647-7.352-27.402-23.847-27.402-42.024 0-18.178 10.756-34.674 27.402-42.025 3.104-1.37 5.301-4.222 5.835-7.572 2.655-16.646 16.84-28.728 33.727-28.728 7.263 0 14.175 2.258 19.95 6.431-8.661 20.057-13.287 41.866-13.287 64.18 0 26.365 6.479 52.079 18.459 75.014-6.42 6.977-15.46 11.024-25.122 11.024zm90.588 145.349c-11.91 6.446-25.964 6.154-37.598-.776-11.633-6.933-18.578-19.155-18.578-32.697v-36.785c0-13.542 6.945-25.765 18.578-32.697 11.633-6.93 25.689-7.222 37.598-.776l46.754 25.303c-6.09 7.169-9.775 16.441-9.775 26.563s3.685 19.394 9.775 26.563zm56.98-51.866c0-11.632 9.463-21.095 21.095-21.095s21.095 9.463 21.095 21.095-9.463 21.095-21.095 21.095c-11.632-.001-21.095-9.464-21.095-21.095zm155.344-18.393v36.785c0 13.542-6.945 25.765-18.578 32.697-11.633 6.931-25.688 7.222-37.598.776l-46.754-25.303c6.09-7.169 9.775-16.441 9.775-26.563s-3.685-19.394-9.775-26.563l46.755-25.303c11.91-6.446 25.965-6.155 37.598.776 11.632 6.933 18.577 19.156 18.577 32.698zm-65.695-51.064-56.026 30.321c-3.952-1.268-8.16-1.959-12.528-1.959s-8.576.691-12.529 1.96l-56.026-30.321c-9.188-4.972-19.213-7.311-29.174-7.046-28.182-26.755-44.271-64.086-44.271-103.02 0-39.47 16.475-77.159 45.329-104h193.341c28.855 26.84 45.33 64.53 45.33 104 0 38.933-16.088 76.263-44.269 103.019-9.962-.266-19.988 2.074-29.177 7.046zm139.67-60.326c-3.103 1.37-5.301 4.222-5.835 7.572-2.655 16.646-16.84 28.728-33.728 28.728-9.644 0-18.697-4.052-25.119-11.028 11.979-22.934 18.457-48.647 18.457-75.011 0-22.315-4.627-44.126-13.29-64.184 5.763-4.173 12.657-6.426 19.952-6.426 16.888 0 31.072 12.082 33.728 28.728.534 3.351 2.732 6.202 5.835 7.572 16.647 7.352 27.402 23.848 27.402 42.025 0 18.178-10.755 34.673-27.402 42.024z"/><path id="XMLID_1343_" d="m256.024 316.334c21.086 0 38.24-17.154 38.24-38.24s-17.154-38.24-38.24-38.24-38.24 17.154-38.24 38.24 17.155 38.24 38.24 38.24zm0-56.481c10.058 0 18.24 8.183 18.24 18.24 0 10.058-8.183 18.24-18.24 18.24-10.058 0-18.24-8.183-18.24-18.24s8.183-18.24 18.24-18.24z"/><path id="XMLID_1350_" d="m285.372 330.559c-7.839 7.84-18.262 12.157-29.348 12.157-11.087 0-21.51-4.317-29.349-12.157-3.906-3.904-10.236-3.904-14.143 0-3.905 3.905-3.905 10.237 0 14.143 11.617 11.616 27.062 18.015 43.491 18.015s31.874-6.398 43.49-18.015c3.905-3.905 3.905-10.237 0-14.143-3.905-3.905-10.237-3.905-14.141 0z"/><path id="XMLID_1356_" d="m180.776 189.306c-16.542 0-30 13.458-30 30s13.458 30 30 30 30-13.458 30-30-13.458-30-30-30zm0 40c-5.514 0-10-4.486-10-10s4.486-10 10-10 10 4.486 10 10c0 5.513-4.486 10-10 10z"/><path id="XMLID_1359_" d="m331.272 189.306c-16.542 0-30 13.458-30 30s13.458 30 30 30 30-13.458 30-30-13.458-30-30-30zm0 40c-5.514 0-10-4.486-10-10s4.486-10 10-10 10 4.486 10 10c0 5.513-4.487 10-10 10z"/><path id="XMLID_1360_" d="m256.024 112.001c2.63 0 5.21-1.069 7.069-2.93 1.86-1.86 2.931-4.44 2.931-7.07 0-2.64-1.07-5.21-2.931-7.069-1.859-1.86-4.439-2.931-7.069-2.931s-5.21 1.07-7.07 2.931c-1.86 1.859-2.93 4.439-2.93 7.069s1.069 5.21 2.93 7.07c1.86 1.861 4.441 2.93 7.07 2.93z"/></g></g></g></svg>